<svg width="262" height="100" viewBox="0 0 262 100" fill="none" xmlns="http://www.w3.org/2000/svg">
<g clip-path="url(#clip0_9870_13339)">
<mask id="mask0_9870_13339" style="mask-type:luminance" maskUnits="userSpaceOnUse" x="32" y="22" width="197" height="56">
<path d="M228.029 22H32.2266V78H228.029V22Z" fill="white"/>
</mask>
<g mask="url(#mask0_9870_13339)">
<path d="M120.895 39.4961H123.369V46.4181C123.369 46.9654 123.806 47.4088 124.345 47.4088H132.12C132.659 47.4088 133.096 46.9654 133.096 46.4181V39.4961H135.571V58.4493H133.096V50.5515C133.096 50.0042 132.659 49.5608 132.12 49.5608H124.345C123.806 49.5608 123.369 50.0042 123.369 50.5515V58.4493H120.895V39.4961Z" fill="white" style="mix-blend-mode:luminosity"/>
<path d="M140.65 44.6348C142.13 49.0901 143.33 52.8445 143.957 54.8234C144.103 55.284 144.744 55.2815 144.885 54.8209C145.473 52.8991 146.597 49.2609 148.075 44.6371H150.447L145.556 59.0879C144.174 63.1297 143.149 64.1551 140.365 64.1551C139.938 64.1551 139.426 64.1278 138.902 64.0634V61.988C139.248 62.0326 139.641 62.0599 140.023 62.0599C141.745 62.0599 142.401 61.2897 143.203 58.9864L138.109 44.6397H140.648L140.65 44.6348Z" fill="white" style="mix-blend-mode:luminosity"/>
<path d="M155.295 56.7434V63.8809H152.957V48.0085C152.957 46.8817 152.957 45.7128 152.93 44.6379H155.212C155.234 44.8262 155.251 45.0813 155.266 45.3734C155.285 45.7995 155.797 46.0075 156.092 45.7029C156.899 44.8732 158.077 44.3086 159.74 44.3086C162.885 44.3086 165.17 46.9857 165.17 51.1885C165.17 56.1218 162.549 58.7766 159.255 58.7766C157.055 58.7766 155.907 57.8406 155.295 56.7434ZM162.751 51.2826C162.751 48.3528 161.439 46.3518 159.116 46.3518C156.297 46.3518 155.185 48.1621 155.185 51.5203C155.185 54.8786 156.097 56.7657 158.938 56.7657C161.422 56.7657 162.751 54.6879 162.751 51.2851V51.2826Z" fill="white" style="mix-blend-mode:luminosity"/>
<path d="M169.812 51.976C169.83 54.7869 171.222 56.783 173.531 56.783C175.682 56.783 176.378 55.6587 176.812 54.6458H179.178C178.644 56.414 177.183 58.7766 173.458 58.7766C169.181 58.7766 167.438 55.2476 167.438 51.6912C167.438 47.5826 169.476 44.3086 173.609 44.3086C177.996 44.3086 179.435 47.8848 179.435 50.8294C179.435 51.2504 179.435 51.602 179.397 51.976H169.812ZM175.969 50.2944C176.591 50.2944 177.054 49.7099 176.922 49.0909C176.567 47.4092 175.47 46.1957 173.572 46.1957C171.675 46.1957 170.561 47.3225 170.108 49.0438C169.942 49.6752 170.407 50.2944 171.051 50.2944H175.966H175.969Z" fill="white" style="mix-blend-mode:luminosity"/>
<path d="M182.456 48.388C182.456 46.4563 182.439 45.3691 182.43 44.636H184.731C184.751 44.8316 184.769 45.2081 184.783 45.7083C184.795 46.1665 185.353 46.3597 185.646 46.0104C186.508 44.9827 187.789 44.3611 189.386 44.3115V46.689C186.597 46.7733 184.805 48.2518 184.805 51.7462V58.4528H182.456V48.3929V48.388Z" fill="white" style="mix-blend-mode:luminosity"/>
<path d="M191.872 38.4482H194.219V45.1524C194.219 45.5857 194.727 45.8086 195.036 45.5139C195.773 44.818 196.884 44.3078 198.557 44.3078C201.969 44.3078 204.122 47.1634 204.122 51.262C204.122 55.3608 202.049 58.776 198.198 58.776C196.021 58.776 194.888 57.9662 194.197 56.6239C194.197 57.3321 194.151 58.0751 194.105 58.4491H191.84C191.866 56.9061 191.866 55.3534 191.866 53.8104V38.4482H191.872ZM201.705 51.3091C201.705 48.3273 200.364 46.3312 198.006 46.3312C195.119 46.3312 194.1 48.3 194.1 51.5889C194.1 54.4668 195.004 56.7625 197.891 56.7625C200.296 56.7625 201.702 54.6772 201.702 51.3091H201.705Z" fill="white" style="mix-blend-mode:luminosity"/>
<path d="M219.037 51.5154C219.037 55.4953 216.791 58.7766 212.633 58.7766C208.737 58.7766 206.379 55.7131 206.379 51.5624C206.379 47.4117 208.689 44.3086 212.787 44.3086C216.565 44.3086 219.037 47.1814 219.037 51.5154ZM208.796 51.5427C208.796 54.5714 210.286 56.783 212.729 56.783C215.172 56.783 216.615 54.6854 216.615 51.5525C216.615 48.4197 215.226 46.3022 212.675 46.3022C210.125 46.3022 208.796 48.3875 208.796 51.5427Z" fill="white" style="mix-blend-mode:luminosity"/>
<path d="M220.328 44.635H221.706C222.245 44.635 222.682 44.1917 222.682 43.6443V40.5586H225.03V43.6443C225.03 44.1917 225.467 44.635 226.005 44.635H228.032V46.5815H225.03V54.6726C225.03 56.0149 225.352 56.7033 226.584 56.7033C226.91 56.7033 227.398 56.686 227.768 56.5894V58.3849C227.187 58.6053 226.382 58.64 225.735 58.64C223.617 58.64 222.682 57.528 222.682 55.2323V46.5815H220.328V44.635Z" fill="white" style="mix-blend-mode:luminosity"/>
<path d="M89.153 77.9975C86.4905 77.9975 83.8449 76.95 81.3919 74.9067C78.7488 72.7051 77.0664 69.5747 75.44 66.5508C72.6042 61.2757 70.1513 56.7189 63.2679 57.3429C58.7473 57.7515 56.3528 61.1742 53.8171 64.7974C51.5567 68.0268 49.2207 71.3678 45.2951 71.8135C42.8544 72.0909 40.6428 71.296 38.7238 69.4583C33.6278 64.5746 31.9941 53.1773 32.2526 48.1598C32.6793 39.8657 36.5489 31.6113 44.232 31.8615C48.1479 31.9902 50.9178 34.2712 53.5976 36.4753C56.543 38.8998 59.3227 41.1883 63.7849 41.2675C71.2339 41.3963 73.3016 37.6492 75.9228 32.9041C77.6345 29.8059 79.5754 26.2917 83.3254 23.8894C86.188 22.0542 89.3165 21.5441 92.3693 22.4109C96.4802 23.5823 100.389 27.2501 102.825 32.2206C107.614 42.0031 107.35 57.328 102.21 67.8683C99.6402 73.1385 95.5829 76.836 91.3525 77.7598C90.621 77.9208 89.8871 78 89.153 78V77.9975ZM64.5164 54.3116C72.1922 54.3116 75.2693 60.0374 78.0051 65.1267C79.5657 68.0319 81.0408 70.7733 83.245 72.611C85.6931 74.6516 88.2119 75.4045 90.7331 74.8548C94.098 74.1192 97.4068 71.0136 99.5842 66.5483C104.278 56.9219 104.549 42.4266 100.201 33.5431C98.1602 29.375 94.8563 26.205 91.5767 25.2713C89.3116 24.6249 87.0586 25.0063 84.8835 26.4006C81.7601 28.4017 80.0898 31.4281 78.4733 34.3579C75.7448 39.2962 72.9309 44.4053 63.7312 44.2394C58.2621 44.1428 54.8021 41.2948 51.7518 38.7835C49.2379 36.713 47.0677 34.9275 44.1345 34.8309C37.612 34.6129 35.4346 43.2066 35.1712 48.3133C34.9445 52.7093 36.3806 63.1306 40.7281 67.2963C42.0131 68.5272 43.3981 69.0373 44.9684 68.8615C47.5895 68.5643 49.3696 66.0233 51.4299 63.0787C54.1072 59.2523 57.1404 54.9158 63.0046 54.3859C63.5264 54.3389 64.0311 54.3165 64.5139 54.3165L64.5164 54.3116Z" fill="url(#paint0_linear_9870_13339)"/>
<path d="M48.6692 46.0712C48.6692 45.0455 47.8504 44.2139 46.8405 44.2139C45.8305 44.2139 45.0117 45.0455 45.0117 46.0712V54.7393C45.0117 55.7651 45.8305 56.5967 46.8405 56.5967C47.8504 56.5967 48.6692 55.7651 48.6692 54.7393V46.0712Z" fill="white" style="mix-blend-mode:luminosity"/>
<path d="M86.7941 49.9976L91.5366 45.1807C92.251 44.455 92.251 43.2786 91.5366 42.553C90.8222 41.8274 89.664 41.8274 88.9496 42.553L82.9148 48.6826C82.2003 49.4082 82.2003 50.5845 82.9148 51.3101L88.9496 57.4398C89.664 58.1654 90.8222 58.1654 91.5366 57.4398C92.251 56.7141 92.251 55.5377 91.5366 54.8121L86.7941 49.9951V49.9976Z" fill="white" style="mix-blend-mode:luminosity"/>
</g>
</g>
<defs>
<linearGradient id="paint0_linear_9870_13339" x1="32.2257" y1="49.9973" x2="106.246" y2="49.9973" gradientUnits="userSpaceOnUse">
<stop stop-color="white"/>
<stop offset="0.35" stop-color="#E0E0E0"/>
<stop offset="1" stop-color="#8F8F8F"/>
</linearGradient>
<clipPath id="clip0_9870_13339">
<rect width="197" height="56" fill="white" transform="translate(32.2266 22)"/>
</clipPath>
</defs>
</svg>
