<svg width="304" height="100" viewBox="0 0 304 100" fill="none" xmlns="http://www.w3.org/2000/svg">
<path d="M59.4514 29.0244H82.7712V33.6751H59.4514V29.0244Z" fill="white"/>
<path d="M64.1252 52.3413H68.7892V56.9919H64.1252V52.3413Z" fill="white"/>
<path d="M59.4514 66.3239H82.7712V70.9746H59.4514V66.3239Z" fill="white"/>
<path d="M78.1101 52.3413H73.4461V56.9919H78.1101V52.3413Z" fill="white"/>
<path d="M73.4496 57.0151H68.7857V61.6657H73.4496V57.0151Z" fill="white"/>
<path d="M68.7857 38.3587H73.4496V43.0093H68.7857V38.3587Z" fill="white"/>
<path d="M78.1101 43.0191H73.4461V47.6698H78.1101V43.0191Z" fill="white"/>
<path d="M64.1252 43.0191H68.7892V47.6698H64.1252V43.0191Z" fill="white"/>
<path d="M92.0927 38.3466H87.4288V61.6663H92.0927V38.3466Z" fill="white"/>
<path d="M54.7811 38.3466V47.6744H54.7947V61.6663H50.1307V47.6744H50.1172V38.3466H54.7811Z" fill="white"/>
<path d="M124.517 63.0994H126.441V66.816H121.544V64.6736H119.62V62.3998H117.828V60.0387H116.035V57.5901H114.286V55.0541H111.794V52.5618H109.345V50.6817H105.803V66.816H101.387V34.0226H105.803V46.7028H109.345V44.0356H112.231V41.3246H115.204V38.6574H118.134V35.9902H121.107V34.0663H125.567V37.7829H122.593V39.7068H119.664V42.3741H116.691V45.0413H113.805V51.3376H116.253V53.4362H118.746V56.3221H120.932V58.6834H122.725V60.957H124.517V63.0994Z" fill="white"/>
<path d="M134.369 37.8266H150.722V34.0226H129.953V66.816H150.722V62.9682H134.369V51.425H143.857V53.3489H148.361V49.6323H144.95V47.7083H134.369V37.8266Z" fill="white"/>
<path fill-rule="evenodd" clip-rule="evenodd" d="M176.025 63.0994H177.949V66.816H173.052V64.6736H171.128V62.3998H169.335V60.0387H167.542V57.5901H165.356V53.2614H158.623V66.816H154.207V34.0226H170.122V36.9522H174.145V39.4445H176.943V43.0298C176.943 48.7141 174.582 51.4688 170.253 52.6055V56.3221H172.44V58.6834H174.232V60.957H176.025V63.0994ZM163.345 49.5448C169.554 49.5448 172.527 48.7577 172.527 43.2048V40.6687H169.248V37.7392H158.623V49.5448H163.345Z" fill="white"/>
<path d="M206.022 34.0226H201.606V51.5561H200.907V49.1514H199.07V46.5278H196.928V44.123H194.698V41.4558H192.599V39.0509H190.762V36.4275H188.62V34.0226H181.449V66.816H185.865V39.0072H186.652V41.4121H188.489V43.9919H190.588V46.4405H192.818V49.1075H194.96V51.5124H196.797V54.0922H198.895V56.5408H201.606V66.816H206.022V34.0226Z" fill="white"/>
<path d="M230.271 37.8266H213.919V47.7083H224.501V49.6323H227.911V53.3489H223.407V51.425H213.919V62.9682H230.271V66.816H209.503V34.0226H230.271V37.8266Z" fill="white"/>
<path d="M254.526 63.1869H238.174V34.0226H233.758V66.816H235.332V66.9035H254.526V63.1869Z" fill="white"/>
</svg>
