<svg width="304" height="100" viewBox="0 0 304 100" fill="none" xmlns="http://www.w3.org/2000/svg">
<path d="M44.6069 61.2974C49.9784 62.961 57.8231 58.0214 57.6433 48.4459C57.6361 48.0622 57.6278 47.6795 57.6196 47.2983C57.4475 39.3311 57.2892 32.0031 67.1024 29.0421C55.1871 25.3518 41.634 34.08 38.6423 45.5062C36.7785 52.6247 39.2354 59.6337 44.6069 61.2974Z" fill="white"/>
<path d="M98.7756 41.135H102.128V56.3749H115.898V59.1857H98.7756V41.135Z" fill="white"/>
<path d="M119.277 39.9488H122.552V42.4243H119.277V39.9488Z" fill="white"/>
<path d="M119.277 44.1778H122.552V59.1857H119.277V44.1778Z" fill="white"/>
<path d="M143.236 45.0804L142.359 47.3496C140.262 46.6447 137.855 46.2923 135.139 46.2923C134.657 46.2923 134.219 46.3095 133.823 46.3439C133.428 46.3611 133.033 46.3955 132.637 46.4471C132.259 46.4986 131.924 46.576 131.631 46.6791C131.356 46.7651 131.107 46.8854 130.884 47.0401C130.678 47.1777 130.514 47.3496 130.394 47.5559C130.291 47.745 130.239 47.9685 130.239 48.2263C130.239 48.8796 130.686 49.3352 131.58 49.593C132.182 49.7649 133.583 49.9713 135.783 50.2119C136.66 50.2979 137.373 50.3752 137.924 50.444C138.474 50.5128 139.084 50.6073 139.754 50.7277C140.442 50.848 140.992 50.9769 141.405 51.1144C141.817 51.252 142.238 51.4325 142.668 51.6559C143.115 51.8623 143.451 52.1029 143.674 52.378C143.897 52.653 144.087 52.9883 144.241 53.3837C144.396 53.7619 144.473 54.1917 144.473 54.673C144.473 56.289 143.7 57.5009 142.153 58.3089C140.623 59.1169 138.457 59.5209 135.654 59.5209C131.786 59.5209 128.529 58.7387 125.881 57.1743L127.196 55.0082C129.672 56.3663 132.611 57.0454 136.016 57.0454C139.488 57.0454 141.224 56.3061 141.224 54.8277C141.224 54.6386 141.198 54.4667 141.147 54.312C141.095 54.1573 141.001 54.0197 140.863 53.8994C140.725 53.7791 140.579 53.6759 140.425 53.59C140.287 53.504 140.081 53.4266 139.806 53.3579C139.531 53.2719 139.273 53.2032 139.032 53.1516C138.809 53.1 138.482 53.0484 138.053 52.9968C137.64 52.9281 137.27 52.8765 136.944 52.8421C136.617 52.8078 136.17 52.7648 135.603 52.7132C134.984 52.6445 134.485 52.5929 134.107 52.5585C133.729 52.5241 133.256 52.4725 132.689 52.4038C132.139 52.335 131.692 52.2662 131.348 52.1975C131.004 52.1115 130.609 52.0084 130.162 51.8881C129.715 51.7505 129.354 51.613 129.079 51.4754C128.804 51.3207 128.511 51.1402 128.202 50.9339C127.91 50.7276 127.686 50.4956 127.531 50.2377C127.377 49.9798 127.239 49.6876 127.119 49.361C127.016 49.0171 126.964 48.6561 126.964 48.2779C126.964 45.3038 129.758 43.8168 135.345 43.8168C138.164 43.8168 140.794 44.238 143.236 45.0804Z" fill="white"/>
<path d="M158.37 46.6791H152.594V55.3692C152.594 55.9538 152.757 56.3663 153.083 56.607C153.41 56.8305 153.909 56.9422 154.579 56.9422C156.006 56.9422 157.407 56.5382 158.782 55.7302V58.4378C157.252 59.0911 155.688 59.4178 154.089 59.4178C152.714 59.4178 151.588 59.1169 150.711 58.5152C149.851 57.8963 149.422 56.968 149.422 55.7302V46.6791H146.095V44.1778H149.422V40.8256L152.31 40.3098L152.439 44.1778H158.37V46.6791Z" fill="white"/>
<path fill-rule="evenodd" clip-rule="evenodd" d="M162.71 45.2093C164.807 44.281 167.506 43.8168 170.807 43.8168C172.131 43.8168 173.283 43.8942 174.262 44.0489C175.259 44.2036 176.145 44.4529 176.918 44.7967C177.709 45.1233 178.302 45.5875 178.698 46.1892C179.11 46.7909 179.317 47.5129 179.317 48.3553V55.8592L179.703 59.1857H176.712L176.325 57.7674C174.4 58.8848 171.761 59.4435 168.409 59.4435C165.967 59.4435 164.145 59.0997 162.942 58.4121C161.739 57.7244 161.137 56.6414 161.137 55.163V54.9051C161.137 53.9768 161.377 53.229 161.859 52.6616C162.34 52.0943 163.2 51.613 164.437 51.2176C165.693 50.8222 167.489 50.4784 169.827 50.1861C171.374 49.9798 172.535 49.8165 173.308 49.6962C174.082 49.5759 174.692 49.4469 175.139 49.3094C175.586 49.1718 175.853 49.0515 175.938 48.9484C176.024 48.8452 176.067 48.6819 176.067 48.4584V48.0458C176.067 46.8596 174.314 46.2666 170.807 46.2666C168.074 46.2666 165.667 46.6705 163.587 47.4785L162.71 45.2093ZM176.067 51.0887C175.861 51.2778 175.474 51.4325 174.907 51.5528C174.357 51.6559 172.767 51.8966 170.137 52.2748C168.469 52.5155 167.231 52.7476 166.423 52.9711C165.615 53.1946 165.074 53.4353 164.799 53.6931C164.524 53.951 164.386 54.312 164.386 54.7762V54.9825C164.403 55.7217 164.764 56.246 165.469 56.5554C166.191 56.8477 167.3 56.9938 168.795 56.9938C171.512 56.9938 173.936 56.5382 176.067 55.6271V51.0887Z" fill="white"/>
<path fill-rule="evenodd" clip-rule="evenodd" d="M206.907 41.135C208.076 41.135 209.185 41.3327 210.234 41.7281C211.3 42.1063 212.236 42.6478 213.045 43.3527C213.87 44.0575 214.523 44.9686 215.004 46.0861C215.486 47.2035 215.726 48.4412 215.726 49.7993V50.5729C215.726 51.9482 215.477 53.1946 214.979 54.312C214.497 55.4294 213.844 56.3405 213.019 57.0454C212.211 57.733 211.3 58.266 210.285 58.6441C209.288 59.0051 208.257 59.1857 207.191 59.1857H192.983V41.135H206.907ZM212.297 50.4956V49.8509C212.297 48.8194 212.142 47.9169 211.832 47.1433C211.523 46.3697 211.084 45.7594 210.517 45.3124C209.967 44.8483 209.331 44.5045 208.609 44.281C207.887 44.0575 207.088 43.9457 206.211 43.9457H196.335V56.3749H206.185C208.025 56.3749 209.503 55.8936 210.621 54.9309C211.738 53.9681 212.297 52.4897 212.297 50.4956Z" fill="white"/>
<path fill-rule="evenodd" clip-rule="evenodd" d="M237.765 59.1857L235.624 55.3692H222.551L220.41 59.1857H216.775L227.218 41.135H230.957L241.401 59.1857H237.765ZM234.129 52.739L229.23 44.0231L229.178 43.8426H228.998L228.946 44.0231L224.021 52.739H234.129Z" fill="white"/>
<path fill-rule="evenodd" clip-rule="evenodd" d="M250.784 41.0576C251.936 40.8857 253.208 40.7998 254.601 40.7998C256.01 40.7998 257.291 40.8857 258.443 41.0576C259.595 41.2296 260.695 41.5304 261.744 41.9602C262.792 42.3899 263.669 42.9487 264.374 43.6363C265.096 44.324 265.663 45.2265 266.076 46.3439C266.506 47.4441 266.721 48.7163 266.721 50.1603C266.721 51.6044 266.506 52.8851 266.076 54.0025C265.663 55.1028 265.096 55.9967 264.374 56.6844C263.669 57.372 262.792 57.9307 261.744 58.3605C260.695 58.7903 259.595 59.0911 258.443 59.263C257.291 59.4349 256.01 59.5209 254.601 59.5209C253.208 59.5209 251.936 59.4349 250.784 59.263C249.65 59.0911 248.55 58.7903 247.484 58.3605C246.435 57.9307 245.55 57.372 244.828 56.6844C244.123 55.9967 243.556 55.1028 243.126 54.0025C242.713 52.8851 242.507 51.6044 242.507 50.1603C242.507 48.7163 242.713 47.4441 243.126 46.3439C243.556 45.2265 244.123 44.324 244.828 43.6363C245.55 42.9487 246.435 42.3899 247.484 41.9602C248.55 41.5304 249.65 41.2296 250.784 41.0576ZM258.495 43.9457C257.446 43.7395 256.148 43.6363 254.601 43.6363C253.071 43.6363 251.781 43.7395 250.733 43.9457C249.701 44.152 248.816 44.5045 248.077 45.003C247.337 45.5015 246.796 46.172 246.453 47.0143C246.126 47.8567 245.963 48.9054 245.963 50.1603C245.963 51.4153 246.126 52.464 246.453 53.3063C246.796 54.1487 247.337 54.8191 248.077 55.3177C248.816 55.8162 249.701 56.1686 250.733 56.3749C251.781 56.5812 253.079 56.6844 254.627 56.6844C255.847 56.6844 256.904 56.6242 257.798 56.5039C258.709 56.3663 259.518 56.1514 260.222 55.8592C260.944 55.5497 261.52 55.1458 261.95 54.6472C262.397 54.1315 262.732 53.5126 262.956 52.7906C263.179 52.0513 263.291 51.1746 263.291 50.1603C263.291 48.9054 263.119 47.8567 262.775 47.0143C262.449 46.172 261.916 45.5015 261.177 45.003C260.437 44.5045 259.543 44.152 258.495 43.9457Z" fill="white"/>
<path d="M64.7212 51.9491C65.5236 42.4073 73.831 38.3409 79.0023 40.5745C84.1735 42.8081 85.8986 50.0433 83.3157 56.9213C79.1697 67.9617 64.7974 75.1802 53.3262 70.2256C63.3884 68.339 63.9819 61.0346 64.6272 53.0929C64.6581 52.713 64.6891 52.3315 64.7212 51.9491Z" fill="white"/>
</svg>
