<svg width="402" height="100" viewBox="0 0 402 100" fill="none" xmlns="http://www.w3.org/2000/svg">
<path fill-rule="evenodd" clip-rule="evenodd" d="M49.5977 32.6198C48.7947 28.6051 52.0066 24.791 56.0214 24.791C59.6347 24.791 62.6457 27.8021 62.6457 31.4154V39.445H68.0657V31.4154C68.0657 27.8021 71.0768 24.791 74.6901 24.791C78.7049 24.791 81.9167 28.6051 81.1137 32.6198L79.3071 42.0546C85.3292 44.6642 89.9462 49.2812 89.9462 55.1026V58.5152C89.9462 63.3329 86.7344 67.3477 82.3181 69.9573C77.9019 72.7676 71.8797 74.3735 65.2553 74.3735C58.631 74.3735 52.6088 72.7676 48.1925 69.9573C43.7763 67.3477 40.5645 63.3329 40.5645 58.5152V55.1026C40.5645 49.2812 45.1814 44.6642 51.2036 42.0546L49.5977 32.6198ZM77.0989 43.4597L79.1063 32.4191C79.6777 29.7526 77.719 27.2667 75.1165 27.0193C77.7182 27.2676 79.676 29.753 79.1047 32.4189L77.0973 43.4596C83.521 45.8684 87.9372 50.2847 87.7365 55.7047V59.1172C87.7365 66.7453 77.6995 72.9682 65.2537 72.9682C64.2823 72.9682 63.3256 72.9303 62.3872 72.8568C63.3261 72.9304 64.2834 72.9684 65.2553 72.9684C77.7012 72.9684 87.7381 66.7454 87.7381 59.1174V55.7048C87.9388 50.2849 83.5226 45.8686 77.0989 43.4597ZM56.495 27.2223C58.87 27.4487 60.6383 29.3675 60.6383 31.8169V42.0544C60.6378 42.0544 60.6373 42.0544 60.6367 42.0544V31.8167C60.6367 29.3679 58.8692 27.4494 56.495 27.2223ZM68.4455 41.6737C68.6457 41.693 68.8567 41.7232 69.0678 41.7533C69.2611 41.7809 69.4545 41.8085 69.6395 41.8278C69.455 41.8085 69.2622 41.781 69.0694 41.7535C68.8578 41.7232 68.6462 41.693 68.4455 41.6737ZM56.824 58.1134C58.0284 58.1134 59.2328 56.3067 59.2328 54.2994C59.2328 52.0912 58.0284 50.4853 56.824 50.4853C55.6195 50.4853 54.4151 52.292 54.4151 54.2994C54.4151 56.5075 55.6195 58.1134 56.824 58.1134ZM76.4947 54.2994C76.4947 56.3067 75.2903 58.1134 74.0858 58.1134C72.6807 58.1134 71.677 56.5075 71.677 54.2994C71.677 52.292 72.8814 50.4853 74.0858 50.4853C75.2903 50.4853 76.4947 52.0912 76.4947 54.2994Z" fill="white"/>
<path d="M268.002 63.3336C270.009 63.7351 272.017 63.9358 274.225 63.9358C277.437 63.9358 280.046 63.1329 281.251 62.3299C283.057 61.1255 283.86 59.1181 283.86 56.91C283.86 55.5048 283.659 54.3004 283.057 53.2967C282.455 52.293 281.652 51.2893 280.448 50.6871C279.643 50.0434 278.451 49.5287 277.08 48.9362C276.74 48.7896 276.39 48.6382 276.031 48.4789L275.228 48.2782C274.788 48.1022 274.387 47.9262 274.024 47.7671C273.559 47.5633 273.158 47.3872 272.82 47.2745C272.619 47.0738 272.418 46.9232 272.217 46.7727C272.017 46.6221 271.816 46.4715 271.615 46.2708C271.414 45.8693 271.214 45.4679 271.214 44.8656C271.214 44.0627 271.414 43.4605 272.017 43.059C272.619 42.6575 273.422 42.4568 274.626 42.4568C276.834 42.4568 278.641 42.8582 280.046 43.8619C280.247 44.0627 280.448 44.0627 280.648 44.0627C280.849 44.0627 281.05 44.0627 281.251 43.6612L283.057 40.6501C283.258 40.4494 283.258 40.2486 283.258 40.0479C283.258 39.6464 283.057 39.4457 282.656 39.0442C281.652 38.442 280.448 37.8398 278.842 37.4383C277.437 37.0368 275.63 36.8361 273.422 36.8361C270.411 36.8361 268.002 37.4383 266.195 38.8435C264.389 40.2486 263.385 42.0553 263.385 44.6649C263.385 46.6723 264.188 48.4789 265.593 49.6834C266.998 50.8878 269.006 51.8915 271.615 52.8952C273.422 53.4974 274.626 54.0996 275.228 54.5011C275.831 54.9026 276.232 55.5048 276.232 56.3078C276.232 57.1107 276.031 57.7129 275.429 58.1144C274.827 58.5159 274.024 58.7166 272.82 58.7166C271.615 58.7166 270.411 58.5159 269.206 58.1144C268.002 57.7129 266.998 57.3115 265.994 56.7092C265.794 56.5085 265.593 56.5085 265.392 56.5085C265.191 56.5085 264.991 56.5085 264.79 56.91L262.983 59.9211C262.783 60.1218 262.783 60.3225 262.783 60.5233C262.783 60.724 262.983 61.1255 263.385 61.3262C264.589 62.1292 265.994 62.9321 268.002 63.3336Z" fill="white"/>
<path fill-rule="evenodd" clip-rule="evenodd" d="M101.187 62.9314C101.589 63.1321 101.99 63.3328 102.793 63.3328V63.1321H106.607C107.41 63.1321 107.812 63.1321 108.213 62.7306C108.414 62.5299 108.615 61.9277 108.615 61.3254V55.1025H112.228C115.841 55.1025 118.652 54.2996 120.258 52.8944C122.064 51.2885 122.867 49.0804 122.867 46.0693C122.867 43.0582 121.863 40.8501 120.258 39.2442C118.451 37.839 115.841 37.036 112.228 37.036H102.793C101.99 37.036 101.589 37.2368 101.187 37.6383C100.987 37.839 100.786 38.4412 100.786 39.0434V61.5262C100.786 62.1284 100.987 62.5299 101.187 62.9314ZM114.035 48.6789C113.432 49.2811 112.629 49.4818 111.626 49.4818H108.615V42.6567H111.626C112.629 42.6567 113.432 42.8575 114.035 43.4597C114.637 44.0619 114.838 44.8649 114.838 46.0693C114.838 47.2737 114.637 48.0767 114.035 48.6789Z" fill="white"/>
<path fill-rule="evenodd" clip-rule="evenodd" d="M126.079 61.5262C127.484 63.1321 129.492 63.935 131.9 63.935C133.306 63.935 134.711 63.7343 135.714 63.1321C136.718 62.7306 137.521 62.1284 138.324 61.3254L138.926 62.5299L139.328 62.9314C139.328 63.1321 139.729 63.1321 139.93 63.1321H143.945C144.346 63.1321 144.748 63.1321 144.948 62.9314C145.149 62.7306 145.149 62.3291 145.149 61.9277V46.4708C143.744 45.6678 142.54 45.0656 140.934 44.6641C139.328 44.2626 137.722 44.0619 135.714 44.0619C133.506 44.0619 131.298 44.6641 129.492 45.4671C127.685 46.4708 126.28 47.6752 125.276 49.2811C124.272 50.887 123.871 52.6937 123.871 54.9018C123.871 57.7121 124.674 59.9203 126.079 61.5262ZM137.12 57.9129C136.517 58.5151 135.714 58.7158 134.711 58.7158C132.703 58.7158 131.7 57.3107 131.7 54.9018C131.7 53.0951 132.101 51.8907 132.904 50.887C133.707 49.8833 134.711 49.4818 136.116 49.4818C136.718 49.4818 137.521 49.6826 137.923 49.8833V55.9055C137.923 56.7085 137.722 57.5114 137.12 57.9129Z" fill="white"/>
<path d="M150.569 63.334C149.766 63.334 149.364 63.1333 148.963 62.9325C148.561 62.5311 148.561 62.1296 148.561 61.5274V45.8697C148.561 45.4682 148.561 45.0668 148.762 44.866C148.963 44.6653 149.364 44.6653 149.766 44.6653H153.781C154.182 44.6653 154.383 44.6653 154.383 44.866C154.507 44.866 154.554 44.9427 154.62 45.0487C154.66 45.1142 154.708 45.1908 154.784 45.2675L154.985 46.4719C155.788 45.669 156.591 45.2675 157.795 44.866C159 44.4645 160.204 44.2638 161.81 44.2638C163.818 44.2638 165.624 44.866 166.829 46.0705C168.033 47.2749 168.836 48.8808 168.836 51.2897V61.5274C168.836 62.1296 168.635 62.7318 168.435 62.9325C168.234 63.334 167.632 63.334 166.829 63.334H163.015C162.212 63.334 161.81 63.1333 161.409 62.9325C161.007 62.5311 161.007 62.1296 161.007 61.5274V51.6912C161.007 50.8882 160.806 50.286 160.405 50.0852C160.003 49.6838 159.602 49.483 158.799 49.483C157.996 49.483 157.394 49.6838 156.992 50.0852C156.591 50.4867 156.39 51.0889 156.39 51.6912V61.3266C156.39 61.9288 156.189 62.5311 155.989 62.7318C155.788 63.1333 155.186 63.1333 154.383 63.1333H150.569V63.334Z" fill="white"/>
<path d="M174.056 61.3266C176.063 63.1333 178.873 63.9362 182.487 63.9362C184.293 63.9362 185.698 63.7355 186.301 63.334C187.706 62.9325 188.91 62.3303 189.914 61.7281C190.115 61.5274 190.315 61.3266 190.315 61.1259C190.315 60.9251 190.315 60.7244 190.115 60.5237L188.308 57.5126C188.107 57.1111 187.907 56.9104 187.706 56.9104C187.582 56.9104 187.458 56.987 187.286 57.093C187.18 57.1585 187.056 57.2352 186.903 57.3118C186.301 57.7133 185.498 58.1148 184.896 58.3155C184.293 58.5163 183.49 58.717 182.687 58.717C181.282 58.717 180.279 58.3155 179.476 57.5126C178.673 56.7096 178.271 55.5052 178.271 54.1C178.271 52.6948 178.673 51.4904 179.476 50.6875C180.279 49.8845 181.483 49.483 182.687 49.483C183.49 49.483 184.293 49.6838 184.896 49.8845C185.498 50.0852 186.301 50.4867 186.903 50.8882C187.056 50.9649 187.18 51.0415 187.286 51.107C187.458 51.213 187.582 51.2897 187.706 51.2897C187.907 51.2897 188.107 51.0889 188.308 50.6875L189.914 47.8771C189.991 47.7238 190.067 47.5997 190.133 47.4938C190.239 47.3223 190.315 47.1982 190.315 47.0742C190.315 46.8734 190.115 46.6727 189.914 46.4719C189.111 45.669 187.907 45.2675 186.702 44.866C185.498 44.4645 184.093 44.2638 182.286 44.2638C180.078 44.2638 178.07 44.6653 176.264 45.4682C174.658 46.2712 173.253 47.4756 172.45 48.8808C171.446 50.4867 171.045 52.0926 171.045 54.1C171.045 57.3118 172.048 59.7207 174.056 61.3266Z" fill="white"/>
<path fill-rule="evenodd" clip-rule="evenodd" d="M200.754 63.935C198.345 63.935 196.337 63.1321 194.932 61.5262C193.527 59.9203 192.724 57.7121 192.724 54.9018C192.724 52.6937 193.125 50.887 194.129 49.2811C195.133 47.6752 196.538 46.4708 198.345 45.4671C200.151 44.6641 202.359 44.0619 204.568 44.0619C206.575 44.0619 208.181 44.2626 209.787 44.6641C211.393 45.0656 212.597 45.6678 214.002 46.4708V61.9277C214.002 62.3291 214.002 62.7306 213.802 62.9314C213.601 63.1321 213.199 63.1321 212.798 63.1321H208.783C208.582 63.1321 208.181 63.1321 208.181 62.9314L207.779 62.5299L207.177 61.3254C206.374 62.1284 205.571 62.7306 204.568 63.1321C203.564 63.7343 202.359 63.935 200.754 63.935ZM203.765 58.7158C204.768 58.7158 205.571 58.5151 206.173 57.9129C206.776 57.5114 206.976 56.7085 206.976 55.9055V49.8833C206.575 49.6826 205.772 49.4818 205.17 49.4818C203.765 49.4818 202.761 49.8833 201.958 50.887C201.155 51.8907 200.754 53.0951 200.754 54.9018C200.553 57.3107 201.556 58.7158 203.765 58.7158Z" fill="white"/>
<path d="M238.693 62.5299C238.693 62.3291 238.693 62.1284 238.492 61.9277L231.667 53.6974L238.291 46.0693C238.492 45.8685 238.492 45.6678 238.492 45.4671C238.492 45.2663 238.492 45.0656 238.291 44.8649C238.091 44.6641 237.89 44.6641 237.689 44.6641H231.667C231.432 44.6641 231.265 44.733 231.128 44.7901C231.03 44.8304 230.947 44.8649 230.864 44.8649C230.663 44.8649 230.462 45.0656 230.262 45.2663L225.243 51.8907V39.0434C225.243 38.4412 225.243 38.0397 224.842 37.6383C224.44 37.2368 224.039 37.036 223.236 37.036H219.422C218.619 37.036 218.217 37.2368 217.816 37.6383C217.615 37.839 217.414 38.4412 217.414 39.0434V61.3254C217.414 61.9277 217.615 62.3291 217.816 62.7306C218.217 62.9314 218.619 63.1321 219.422 63.1321H223.236C224.039 63.1321 224.44 63.1321 224.842 62.7306C225.043 62.5299 225.243 61.9277 225.243 61.3254V55.7048L230.462 62.9314C230.663 63.1321 230.864 63.3328 231.065 63.3328H237.89C238.091 63.3328 238.291 63.3328 238.492 63.1321C238.693 62.9314 238.693 62.7306 238.693 62.5299Z" fill="white"/>
<path fill-rule="evenodd" clip-rule="evenodd" d="M250.939 63.9354C248.731 63.9354 246.924 63.534 245.118 62.9317C243.512 62.1288 242.107 61.1251 241.103 59.7199C240.099 58.3148 239.698 56.5081 239.698 54.5007C239.698 51.2889 240.701 48.6793 242.508 47.0734C244.315 45.2667 247.125 44.4638 250.538 44.4638C253.95 44.4638 256.56 45.2667 258.166 47.0734C259.972 48.6793 260.775 51.0881 260.775 54.0992C260.775 55.3037 260.173 56.1066 259.169 56.1066H247.125C247.125 57.3111 247.526 58.114 248.329 58.7162C249.132 59.3184 250.538 59.5192 252.143 59.5192C253.147 59.5192 254.151 59.5192 254.753 59.3184C255.155 59.2181 255.506 59.0675 255.857 58.917C256.208 58.7664 256.56 58.6159 256.961 58.5155C257.363 58.3148 257.563 58.3148 257.563 58.3148C257.764 58.3148 257.965 58.5155 258.166 58.7162L259.571 61.1251C259.772 61.3258 259.772 61.5266 259.772 61.7273C259.772 61.9281 259.571 62.1288 259.37 62.3295C258.366 62.9317 257.162 63.534 255.757 63.9354C254.708 63.8043 253.744 63.8445 252.698 63.8882C252.143 63.9113 251.565 63.9354 250.939 63.9354ZM253.95 51.8911C253.95 50.8874 253.749 50.0845 253.147 49.683C252.545 49.0808 251.742 48.88 250.538 48.88C249.333 48.88 248.53 49.0808 247.928 49.683C247.326 50.2852 247.125 50.8874 247.125 51.8911H253.95Z" fill="white"/>
<path d="M292.492 63.3344C292.091 63.3344 291.89 63.3344 291.689 63.1337C291.489 62.9329 291.288 62.7322 291.288 62.3307L286.269 45.6694V45.2679C286.269 44.8664 286.47 44.6657 287.072 44.6657H292.091C292.492 44.6657 292.693 44.6657 292.894 44.8664C293.095 45.0672 293.095 45.0672 293.295 45.4686L295.303 54.3011L297.912 47.2753C297.971 47.1577 298.013 47.0573 298.047 46.9742C298.13 46.7734 298.172 46.6731 298.314 46.6731C298.515 46.4723 298.715 46.4723 299.117 46.4723H301.526C301.927 46.4723 302.128 46.4723 302.329 46.6731C302.429 46.7734 302.479 46.8738 302.529 46.9742C302.58 47.0745 302.63 47.1749 302.73 47.2753L305.34 54.3011L307.548 45.4686C307.548 45.2679 307.749 45.0672 307.949 44.8664C308.15 44.6657 308.351 44.6657 308.552 44.6657H313.771C314.373 44.6657 314.574 44.8664 314.574 45.2679V45.6694L309.555 62.3307C309.479 62.4841 309.431 62.6081 309.391 62.7141C309.325 62.8855 309.278 63.0096 309.154 63.1337C308.953 63.3344 308.752 63.3344 308.351 63.3344H304.537C304.135 63.3344 303.935 63.3344 303.734 63.1337C303.533 62.9329 303.332 62.7322 303.332 62.3307L300.723 55.3048L298.113 62.3307C298.036 62.4841 297.989 62.6081 297.949 62.7141C297.883 62.8855 297.836 63.0096 297.712 63.1337C297.511 63.3344 297.31 63.3344 296.909 63.3344H292.492Z" fill="white"/>
<path fill-rule="evenodd" clip-rule="evenodd" d="M317.985 61.5262C319.39 63.1321 321.397 63.935 323.806 63.935C325.412 63.935 326.616 63.7343 327.62 63.1321C328.624 62.7306 329.427 62.1284 330.23 61.3254L330.832 62.5299L331.233 62.9314C331.434 63.1321 331.635 63.1321 331.836 63.1321H335.85C336.252 63.1321 336.653 63.1321 336.854 62.9314C337.055 62.7306 337.055 62.3291 337.055 61.9277V46.4708C335.65 45.6678 334.445 45.0656 332.839 44.6641C331.233 44.2626 329.628 44.0619 327.62 44.0619C325.412 44.0619 323.204 44.6641 321.397 45.4671C319.591 46.4708 318.185 47.6752 317.182 49.2811C316.178 50.887 315.776 52.6937 315.776 54.9018C315.776 57.7121 316.579 59.9203 317.985 61.5262ZM329.226 57.9129C328.624 58.5151 327.821 58.7158 326.817 58.7158C324.609 58.7158 323.605 57.3107 323.806 54.9018C323.806 53.0951 324.208 51.8907 325.01 50.887C325.813 49.8833 326.817 49.4818 328.222 49.4818C328.825 49.4818 329.627 49.6826 330.029 49.8833V55.9055C330.029 56.7085 329.828 57.5114 329.226 57.9129Z" fill="white"/>
<path fill-rule="evenodd" clip-rule="evenodd" d="M342.476 71.162C341.673 71.162 341.272 70.9613 340.87 70.7606C340.67 70.3591 340.469 69.9576 340.469 69.3554V47.2741C341.673 46.4712 343.079 45.6682 344.885 45.2667C346.692 44.6645 348.499 44.4638 350.305 44.4638C358.134 44.4638 361.948 47.6756 361.948 54.3C361.948 57.3111 361.145 59.7199 359.539 61.5266C357.933 63.3332 355.524 64.1362 352.513 64.1362C351.71 64.1362 350.907 63.9354 350.104 63.7347C349.302 63.534 348.699 63.3332 348.097 62.9317V69.3554C348.097 69.9576 347.896 70.5598 347.696 70.7606C347.294 71.162 346.893 71.162 346.09 71.162H342.476ZM350.907 58.7162C352.112 58.7162 352.915 58.3148 353.316 57.5118C353.919 56.7088 354.119 55.5044 354.119 54.0992C354.119 52.4933 353.718 51.2889 353.116 50.4859C352.513 49.8837 351.51 49.4822 350.104 49.4822C349.302 49.4822 348.499 49.683 348.097 49.8837V55.9059C348.097 56.7088 348.298 57.5118 348.9 57.9133C349.302 58.5155 350.104 58.7162 350.907 58.7162Z" fill="white"/>
</svg>
