<svg width="304" height="100" viewBox="0 0 304 100" fill="none" xmlns="http://www.w3.org/2000/svg">
<path d="M99.0174 45.0208C99.0174 49.9302 97.1799 54.6961 93.8782 58.3423C90.5766 61.9885 86.0404 64.2853 81.1309 64.7734C81.3606 61.9598 80.4993 59.1462 78.6905 56.9642C76.8818 54.7823 74.3266 53.3755 71.513 53.0309V26.7324C74.5276 25.4691 77.8005 24.9524 81.0735 25.2682C84.3177 25.584 87.4472 26.675 90.1746 28.4837C92.9021 30.2925 95.1415 32.7615 96.6631 35.6326C98.2135 38.5323 99.0174 41.7478 99.0174 45.0208Z" fill="#4B4B4B"/>
<path d="M59.4264 65.1174C59.2254 63.4522 59.4264 61.787 60.0006 60.2079C60.5748 58.6289 61.4648 57.2221 62.6707 56.0449C64.4794 58.7724 66.9485 60.9831 69.8195 62.5334C72.6905 64.0838 75.9348 64.859 79.179 64.859C79.8394 64.859 80.4706 64.8308 81.1309 64.7734C80.9012 67.4722 79.6958 69.9981 77.7148 71.8643C75.7338 73.7304 73.1499 74.764 70.4224 74.8214C67.7237 74.8501 65.0823 73.9027 63.0439 72.0939C61.0342 70.2852 59.7422 67.8161 59.4264 65.1174Z" fill="white"/>
<path d="M71.5134 26.7603L71.513 53.0309C74.3266 53.3467 76.9105 54.7535 78.6905 56.9642C80.4993 59.1462 81.3606 61.9598 81.1309 64.7734C80.4993 64.8308 79.8394 64.859 79.179 64.859C75.9061 64.859 72.6905 64.0551 69.8195 62.5334C66.9485 60.9831 64.4794 58.7724 62.6707 56.0449C64.3933 54.3797 66.6326 53.3172 69.0156 53.0588V27.9948C69.7907 27.5354 70.6233 27.1048 71.5134 26.7603Z" fill="#ACACAC"/>
<path d="M59.3689 45.0201C59.3689 41.5749 60.2589 38.2158 61.9528 35.23C63.6467 32.2441 66.0871 29.7463 69.0442 27.995V53.0303C66.6613 53.2887 64.422 54.351 62.6707 56.0449C60.4887 52.772 59.3402 48.9534 59.3689 45.0201Z" fill="#4B4B4B"/>
<path d="M121.555 49.0978H116.731V56.0457H114.578V38.9631H121.641C122.818 38.9918 123.938 39.4799 124.799 40.2838C125.287 40.7432 125.689 41.2887 125.947 41.8916C126.206 42.5232 126.321 43.1835 126.292 43.8439C126.292 44.5903 126.177 45.3368 125.947 46.0545C125.775 46.6 125.488 47.1168 125.086 47.5762C124.742 47.9494 124.34 48.2365 123.909 48.4949C123.507 48.6959 123.105 48.8681 122.674 48.983C122.301 49.0404 121.928 49.0978 121.555 49.0978ZM121.583 47.1742C122.244 47.1455 122.875 46.8871 123.335 46.3991C123.88 45.8536 124.196 45.021 124.196 43.8726C124.225 43.4706 124.139 43.0974 123.995 42.7242C123.852 42.3509 123.651 42.0064 123.363 41.7193C123.162 41.4609 122.904 41.2599 122.588 41.1164C122.301 40.9728 121.985 40.8867 121.641 40.858H116.703V47.1742H121.583Z" fill="white"/>
<path d="M140.389 48.179V52.4855C140.389 53.5765 141.049 54.1507 142.341 54.1507H148.628V56.0743H141.996C140.704 56.0456 139.757 55.7872 139.154 55.3278C138.551 54.8685 138.264 54.0072 138.264 52.83V38.9917H148.657V40.8866H140.389V46.3128H148.112V48.2077H140.389V48.179Z" fill="white"/>
<path d="M171.97 52.3708V38.9631H174.095V56.0457H171.712C170.678 54.0073 169.817 52.3708 169.156 51.165C168.496 49.9591 167.635 48.4662 166.601 46.6862C165.568 44.9061 164.477 43.2122 163.357 41.5758V56.0457H161.232V38.9631H164.046C165.654 41.2312 167.032 43.3558 168.18 45.3368C169.3 47.2891 170.563 49.6433 171.97 52.3708Z" fill="white"/>
<path d="M193.244 56.0459H187.588V38.9633H193.244C194.278 38.9346 195.282 39.1356 196.259 39.5375C197.206 39.9395 198.067 40.5137 198.785 41.2601C200.307 42.7818 201.082 44.8776 201.082 47.5764C201.082 50.2751 200.307 52.371 198.785 53.8639C198.039 54.5817 197.177 55.1559 196.23 55.5291C195.282 55.9023 194.249 56.0746 193.244 56.0459ZM189.713 54.151H192.153C194.335 54.151 196 53.6055 197.12 52.4858C198.24 51.3948 198.814 49.7296 198.814 47.5189C198.814 43.0401 196.603 40.8295 192.153 40.8295H189.713V54.151Z" fill="white"/>
<path d="M215.639 38.9631V52.4856C215.639 53.5766 216.299 54.1508 217.591 54.1508H224.079V56.0744H217.218C215.897 56.0457 214.978 55.7873 214.375 55.3279C213.801 54.8399 213.485 54.0073 213.485 52.8302V38.9918H215.639V38.9631Z" fill="white"/>
<path d="M237.257 48.179V52.4855C237.257 53.5765 237.917 54.1507 239.209 54.1507H245.497V56.0743H238.836C237.515 56.0456 236.597 55.7872 235.994 55.3278C235.391 54.8685 235.104 54.0072 235.104 52.83V38.9917H245.497V40.8866H237.228V46.3128H244.923V48.2077H237.257V48.179Z" fill="white"/>
</svg>
