<svg width="303" height="100" viewBox="0 0 303 100" fill="none" xmlns="http://www.w3.org/2000/svg">
<path d="M92.1005 36.5061L73.2523 69.1525C72.6824 70.1371 71.8636 70.9545 70.8781 71.5226C69.8926 72.0911 68.775 72.3903 67.6374 72.3903C66.4997 72.3903 65.3821 72.0911 64.3966 71.5226C63.4111 70.9545 62.5923 70.1371 62.0224 69.1525L58.7183 63.4339C58.7077 63.4197 58.7031 63.4019 58.7056 63.3843C58.7081 63.3668 58.7175 63.3509 58.7317 63.3403C58.7459 63.3296 58.7637 63.3251 58.7812 63.3276C58.7989 63.3301 58.8147 63.3394 58.8253 63.3537C59.4147 63.9355 60.1294 64.3748 60.9147 64.638C61.7 64.9013 62.535 64.9814 63.356 64.8723C64.177 64.7632 64.9622 64.4678 65.6516 64.0087C66.3409 63.5496 66.916 62.9388 67.3331 62.2233L83.1111 34.8675C83.5271 34.1452 83.7713 33.3369 83.8247 32.5052C83.8782 31.6735 83.7395 30.8406 83.4194 30.071C83.0993 29.3015 82.6064 28.6159 81.9788 28.0675C81.3512 27.519 80.6058 27.1223 79.8003 26.9082C79.7826 26.9082 79.7656 26.9011 79.753 26.8886C79.7405 26.8761 79.7334 26.859 79.7334 26.8413C79.7334 26.8236 79.7405 26.8066 79.753 26.794C79.7656 26.7815 79.7826 26.7744 79.8003 26.7744H86.4889C87.6272 26.7756 88.7449 27.0763 89.7301 27.6462C90.7157 28.2162 91.5337 29.0353 92.1022 30.0213C92.6707 31.0074 92.97 32.1257 92.9695 33.264C92.9695 34.4022 92.6694 35.5204 92.1005 36.5061ZM69.7877 26.7744H63.2531C63.2397 26.7788 63.228 26.7873 63.2198 26.7987C63.2115 26.8101 63.2071 26.8239 63.2071 26.838C63.2071 26.852 63.2115 26.8658 63.2198 26.8772C63.228 26.8886 63.2397 26.8971 63.2531 26.9015C63.6932 27.0715 64.0915 27.3345 64.4205 27.6726C64.7497 28.0107 65.0019 28.4158 65.16 28.8603C65.3181 29.3049 65.3784 29.7783 65.3368 30.2483C65.2951 30.7182 65.1524 31.1737 64.9185 31.5834L55.3941 48.0571C55.1481 48.4748 54.8125 48.8329 54.4117 49.1056C54.0108 49.3783 53.5545 49.5589 53.0756 49.6343C52.5967 49.7098 52.107 49.6783 51.6417 49.542C51.1764 49.4058 50.7471 49.1682 50.3845 48.8463C50.3738 48.8322 50.358 48.8228 50.3404 48.8203C50.3229 48.8178 50.305 48.8223 50.2908 48.833C50.2767 48.8436 50.2673 48.8595 50.2648 48.877C50.2623 48.8946 50.2668 48.9124 50.2774 48.9266L53.6217 54.7322C53.9972 55.3837 54.5377 55.9248 55.1887 56.301C55.8398 56.6773 56.5785 56.8753 57.3305 56.8753C58.0824 56.8753 58.8211 56.6773 59.4722 56.301C60.1232 55.9248 60.6637 55.3837 61.0392 54.7322L73.4998 33.1953C73.8757 32.5442 74.0735 31.8056 74.0733 31.0538C74.0731 30.302 73.8748 29.5635 73.4986 28.9126C73.1223 28.2617 72.5812 27.7214 71.9298 27.346C71.2784 26.9707 70.5396 26.7735 69.7877 26.7744ZM47.1071 26.7744C45.992 26.7744 44.9018 27.1051 43.9746 27.7247C43.0474 28.3442 42.3247 29.2248 41.8979 30.2551C41.4712 31.2854 41.3595 32.419 41.5771 33.5128C41.7947 34.6065 42.3317 35.6112 43.1202 36.3997C43.9087 37.1883 44.9134 37.7253 46.0072 37.9428C47.1009 38.1604 48.2345 38.0487 49.2648 37.622C50.2951 37.1952 51.1757 36.4725 51.7953 35.5453C52.4148 34.6181 52.7455 33.5279 52.7455 32.4128C52.7464 31.6721 52.6012 30.9385 52.3181 30.254C52.0351 29.5696 51.6198 28.9476 51.096 28.4239C50.5723 27.9002 49.9504 27.4849 49.2659 27.2018C48.5814 26.9188 47.8478 26.7735 47.1071 26.7744Z" fill="url(#paint0_linear_642_9945)"/>
<path d="M137.357 37.0049H131.725L124.029 55.3268L116.369 37.0049H110.738L121.589 62.16H126.507L137.357 37.0049Z" fill="white"/>
<path d="M165.085 57.542H151.081V51.8352H163.921V47.2922H151.081V41.6229H165.01V37.0049H145.974V62.16H165.085V57.542Z" fill="white"/>
<path d="M198.717 37.0049H193.611V53.5998L179.682 37.0049H175.402V62.16H180.508V46.0157L194.437 62.16H198.717V37.0049Z" fill="white"/>
<path d="M231.259 37.0049H226.153V50.8965C226.153 52.9991 225.627 54.6886 224.576 55.9651C223.525 57.2416 222.136 57.8424 220.446 57.8424C218.644 57.8424 217.18 57.2416 216.091 55.9651C215.002 54.6886 214.477 52.9991 214.477 50.8965V37.0049H209.37V50.8965C209.37 54.4258 210.384 57.2792 212.412 59.4568C214.439 61.6344 217.105 62.7232 220.446 62.7232C223.675 62.7232 226.303 61.6344 228.293 59.4568C230.245 57.2792 231.259 54.4258 231.259 50.8965V37.0049Z" fill="white"/>
<path d="M251.156 36.442C248.227 36.442 245.899 37.1553 244.172 38.5821C242.445 40.0087 241.582 41.8484 241.582 44.1011C241.582 48.0058 243.759 50.4087 248.19 51.3098L253.521 52.3235C254.572 52.5487 255.323 52.8867 255.774 53.2996C256.224 53.7502 256.45 54.3134 256.45 55.0643C256.45 56.0029 256.037 56.7538 255.285 57.3545C254.497 57.9552 253.408 58.2556 251.982 58.2556C248.865 58.2556 246.988 56.904 246.35 54.1632L240.981 55.252C241.281 57.6549 242.408 59.5321 244.36 60.8087C246.312 62.0852 248.715 62.7235 251.494 62.7235C254.497 62.7235 256.9 62.0101 258.74 60.5834C260.542 59.1567 261.481 57.2419 261.481 54.8014C261.481 52.8867 260.88 51.3098 259.716 50.1083C258.552 48.9069 256.938 48.0434 254.873 47.5929L249.466 46.504C247.776 46.2037 246.951 45.3402 246.951 43.951C246.951 43.0875 247.326 42.3366 248.077 41.7358C248.828 41.1351 249.804 40.8348 251.043 40.8348C252.32 40.8348 253.408 41.2102 254.347 41.9235C255.248 42.6369 255.811 43.5755 255.999 44.7394L261.105 43.6882C260.617 41.473 259.491 39.7084 257.688 38.3943C255.886 37.1178 253.709 36.442 251.156 36.442Z" fill="white"/>
<defs>
<linearGradient id="paint0_linear_642_9945" x1="258.666" y1="62.8723" x2="219.629" y2="-50.3775" gradientUnits="userSpaceOnUse">
<stop stop-color="white"/>
<stop offset="0.5" stop-color="white" stop-opacity="0.5"/>
<stop offset="1" stop-color="white" stop-opacity="0.2"/>
</linearGradient>
</defs>
</svg>
