<svg width="304" height="100" viewBox="0 0 304 100" fill="none" xmlns="http://www.w3.org/2000/svg">
<path fill-rule="evenodd" clip-rule="evenodd" d="M253.216 63.9437C251.478 63.9437 250.126 63.5091 249.159 62.6397C248.192 61.7573 247.708 60.4468 247.708 58.7081L247.67 48.6066C247.67 47.7492 248.162 47.0035 249.022 46.7966H245.141V42.4173H247.707L248.747 35.3279H253.04V42.4173H257.9V46.7966H253.04V57.1705C253.04 58.001 253.177 58.5784 253.451 58.9027C253.739 59.2271 254.267 59.3893 255.039 59.3893C255.653 59.3893 256.195 59.3828 256.665 59.3699C257.136 59.3569 257.567 59.331 257.959 59.292V63.6518C257.397 63.8075 256.678 63.8919 255.803 63.9048C254.928 63.9308 254.065 63.9437 253.216 63.9437ZM235.647 63.9996C233.91 63.9996 232.394 63.7466 231.1 63.2406C229.807 62.7345 228.788 61.969 228.043 60.9439C227.312 59.9059 226.907 58.5824 226.828 56.9734H232.081C232.224 58.0374 232.61 58.8094 233.237 59.2895C233.864 59.7566 234.674 59.9902 235.668 59.9902C236.269 59.9902 236.824 59.9253 237.333 59.7955C237.843 59.6658 238.248 59.4452 238.548 59.1338C238.862 58.8224 239.018 58.3942 239.018 57.8493C239.018 57.434 238.921 57.0966 238.725 56.8372C238.529 56.5646 238.235 56.3376 237.843 56.1559C237.463 55.9613 236.993 55.7796 236.432 55.6109C235.87 55.4423 235.223 55.2541 234.491 55.0465C233.198 54.6702 232.009 54.2225 230.924 53.7036C229.84 53.1715 228.971 52.4709 228.318 51.6015C227.665 50.7321 227.338 49.5968 227.338 48.1954C227.338 46.1842 228.082 44.6596 229.572 43.6216C231.062 42.5705 233.002 42.045 235.393 42.045C236.856 42.045 238.176 42.2461 239.352 42.6484C240.528 43.0506 241.495 43.7448 242.252 44.731C243.023 45.7171 243.513 47.086 243.722 48.8377L238.509 48.8183C238.352 48.0137 238.104 47.4104 237.764 47.0082C237.438 46.5929 237.058 46.314 236.628 46.1712C236.209 46.0285 235.766 45.9571 235.295 45.9571C234.772 45.9571 234.302 46.0415 233.884 46.2101C233.479 46.3659 233.165 46.5995 232.943 46.9108C232.721 47.2222 232.61 47.5985 232.61 48.0397C232.61 48.5847 232.767 49.0389 233.08 49.4021C233.407 49.7655 233.897 50.0834 234.55 50.3558C235.217 50.6153 236.046 50.8943 237.039 51.1928C237.771 51.3874 238.555 51.6145 239.391 51.874C240.228 52.1335 241.017 52.4838 241.762 52.925C242.507 53.3532 243.115 53.9371 243.585 54.6767C244.068 55.4034 244.31 56.3506 244.31 57.5183C244.31 59.5555 243.526 61.145 241.958 62.2869C240.391 63.4287 238.287 63.9996 235.647 63.9996ZM210.534 62.6972C212.05 63.5406 213.866 63.9623 215.982 63.9623C217.694 63.9623 219.19 63.6899 220.471 63.1449C221.764 62.5999 222.79 61.8149 223.547 60.7898C224.318 59.7518 224.762 58.5256 224.88 57.1113H219.687C219.53 57.8379 219.144 58.4542 218.53 58.9603C217.916 59.4663 217.021 59.7193 215.845 59.7193C214.513 59.7193 213.428 59.2652 212.591 58.3569C211.769 57.4487 211.291 56.0213 211.161 54.075H225.233C225.259 53.6468 225.279 53.277 225.292 52.9656C225.318 52.6541 225.331 52.3233 225.331 51.973C225.331 49.819 224.972 48.0024 224.253 46.5232C223.535 45.031 222.483 43.9086 221.098 43.156C219.726 42.3905 218.047 42.0077 216.061 42.0077C214.023 42.0077 212.232 42.4359 210.69 43.2923C209.162 44.1487 207.966 45.3943 207.104 47.0293C206.255 48.6642 205.83 50.6624 205.83 53.024C205.83 55.3596 206.236 57.3448 207.046 58.9797C207.855 60.6017 209.018 61.8408 210.534 62.6972ZM220.059 50.7857H213.474C212.768 50.7857 212.226 50.9089 211.847 51.1555C211.468 51.4021 211.226 51.8626 211.122 52.5374C211.187 50.5781 211.592 49.06 212.337 47.983C213.094 46.893 214.264 46.348 215.845 46.348C217.282 46.348 218.328 46.7243 218.981 47.4769C219.647 48.2295 220.006 49.3324 220.059 50.7857ZM180.717 63.6693V35.3696H187.38L196.239 52.3221L198.61 58.2585H198.767L197.984 51.4463V35.3696H203.353V63.6693H196.651L187.851 46.7751L185.577 41.2086H185.381L186.087 48.7604V63.6693H180.717ZM160.984 62.5418C162.212 63.4631 163.701 63.9237 165.452 63.9237C166.419 63.9237 167.236 63.7745 167.902 63.4761C168.582 63.1647 169.143 62.7624 169.588 62.2694C170.032 61.7633 170.385 61.2053 170.646 60.5955C170.907 59.9857 171.097 59.3823 171.214 58.7854L171.23 58.7158L171.234 63.6707H176.604V35.3641H171.214L171.221 45.2561C171.072 44.9022 170.874 44.5461 170.627 44.188C170.195 43.5651 169.581 43.0526 168.784 42.6503C167.987 42.2351 166.975 42.0275 165.746 42.0275C164.178 42.0275 162.754 42.4493 161.474 43.2926C160.193 44.136 159.174 45.3687 158.416 46.9907C157.659 48.6126 157.279 50.5979 157.279 52.9464C157.279 55.1134 157.593 57.0207 158.22 58.6686C158.847 60.3165 159.769 61.6076 160.984 62.5418ZM171.223 48.673L171.23 57.3546L171.214 57.3257C171.149 57.5981 170.946 57.9096 170.607 58.2599C170.28 58.5973 169.829 58.8957 169.254 59.1552C168.693 59.4017 168.013 59.525 167.216 59.525C165.818 59.525 164.721 58.9736 163.924 57.8707C163.127 56.7548 162.728 55.1458 162.728 53.0437C162.728 50.7731 163.152 49.1122 164.002 48.0612C164.851 47.0102 165.988 46.4846 167.412 46.4846C168.183 46.4846 168.823 46.5819 169.333 46.7765C169.855 46.9712 170.267 47.2372 170.567 47.5746C170.881 47.899 171.097 48.2687 171.214 48.684L171.223 48.673ZM149.228 63.6698V35.3696H154.658V63.6698H149.228ZM132.057 62.6972C133.572 63.5406 135.389 63.9623 137.505 63.9623C139.217 63.9623 140.713 63.6899 141.993 63.1449C143.287 62.5999 144.313 61.8149 145.071 60.7898C145.841 59.7518 146.285 58.5256 146.404 57.1113H141.21C141.053 57.8379 140.667 58.4542 140.053 58.9603C139.439 59.4663 138.544 59.7193 137.368 59.7193C136.036 59.7193 134.951 59.2652 134.115 58.3569C133.292 57.4487 132.814 56.0213 132.684 54.075H146.756C146.782 53.6468 146.801 53.277 146.815 52.9656C146.841 52.6541 146.854 52.3233 146.854 51.973C146.854 49.819 146.494 48.0024 145.776 46.5232C145.058 45.031 144.006 43.9086 142.621 43.156C141.249 42.3905 139.57 42.0077 137.583 42.0077C135.546 42.0077 133.755 42.4359 132.213 43.2923C130.685 44.1487 129.489 45.3943 128.627 47.0293C127.778 48.6642 127.353 50.6624 127.353 53.024C127.353 55.3596 127.758 57.3448 128.568 58.9797C129.379 60.6017 130.541 61.8408 132.057 62.6972ZM141.582 50.7857H134.997C134.291 50.7857 133.749 50.9089 133.37 51.1555C132.991 51.4021 132.749 51.8626 132.645 52.5374C132.71 50.5781 133.115 49.06 133.86 47.983C134.618 46.893 135.787 46.348 137.368 46.348C138.805 46.348 139.851 46.7243 140.504 47.4769C141.17 48.2295 141.529 49.3324 141.582 50.7857ZM110.683 63.6693V54.6189L119.16 37.7976C119.318 38.1213 119.53 38.415 119.795 38.6786C120.448 39.3274 121.245 39.6518 122.186 39.6518C123.114 39.6518 123.904 39.3274 124.557 38.6786C125.224 38.0299 125.557 37.1994 125.557 36.1873C125.557 35.8995 125.531 35.627 125.476 35.3696H114.093L110.585 43.4274L108.037 49.1302H107.743L105.234 43.408L101.726 35.3696H95.4349L105.136 54.5804V63.6693H110.683ZM119.462 63.6696V42.4156H124.872L124.852 63.6696H119.462Z" fill="white"/>
<path fill-rule="evenodd" clip-rule="evenodd" d="M64.2456 30.1096C64.2456 29.9105 64.4091 29.749 64.6109 29.749H69.361C69.5628 29.749 69.7263 29.9105 69.7263 30.1096V39.5145C69.7263 39.8731 70.1989 40.0119 70.3976 39.7117L75.7913 31.5635C75.9043 31.3929 76.138 31.3485 76.3071 31.4655L80.1954 34.1574C80.3568 34.2691 80.3993 34.487 80.2915 34.6498L75.7482 41.5133C75.5894 41.7532 75.7638 42.0711 76.0541 42.0711H86.7169C86.9187 42.0711 87.0823 42.2326 87.0823 42.4318V47.1195C87.0823 47.3187 86.9187 47.4801 86.7169 47.4801H82.4623C79.4778 47.4801 76.841 45.7429 74.2413 44.03C73.2001 43.344 72.1649 42.6619 71.1156 42.0969C69.8889 41.4363 68.4818 41.0609 66.986 41.0609C65.4901 41.0609 64.0831 41.4363 62.8565 42.0969C61.8072 42.6619 60.7719 43.344 59.7307 44.03C57.131 45.7429 54.4942 47.4801 51.5097 47.4801H47.255C47.0532 47.4801 46.8896 47.3187 46.8896 47.1195V42.4318C46.8896 42.2326 47.0532 42.0711 47.255 42.0711H57.9248C58.2151 42.0711 58.3895 41.7532 58.2307 41.5133L53.6875 34.6498C53.5797 34.487 53.6222 34.2691 53.7835 34.1574L57.6718 31.4655C57.8409 31.3485 58.0746 31.3929 58.1876 31.5635L63.5743 39.7011C63.773 40.0012 64.2456 39.8624 64.2456 39.5039V30.1096ZM59.7307 55.1341C57.131 53.4211 54.4942 51.6839 51.5097 51.6839H47.255C47.0532 51.6839 46.8896 51.8453 46.8896 52.0445V56.7322C46.8896 56.9314 47.0532 57.0929 47.255 57.0929H57.9248C58.2151 57.0929 58.3895 57.4108 58.2307 57.6507L53.6875 64.5142C53.5797 64.677 53.6222 64.8949 53.7835 65.0066L57.6718 67.6985C57.8409 67.8156 58.0746 67.7711 58.1876 67.6005L63.5743 59.4629C63.773 59.1628 64.2456 59.3016 64.2456 59.6601V69.0544C64.2456 69.2535 64.4091 69.415 64.6109 69.415H69.361C69.5628 69.415 69.7263 69.2535 69.7263 69.0544V59.6495C69.7263 59.291 70.1989 59.1521 70.3976 59.4523L75.7913 67.6005C75.9043 67.7711 76.138 67.8156 76.3071 67.6985L80.1954 65.0066C80.3568 64.8949 80.3993 64.677 80.2915 64.5142L75.7482 57.6507C75.5894 57.4108 75.7638 57.0929 76.0541 57.0929H86.7169C86.9187 57.0929 87.0823 56.9314 87.0823 56.7322V52.0445C87.0823 51.8453 86.9187 51.6839 86.7169 51.6839H82.4623C79.4778 51.6839 76.841 53.4211 74.2413 55.1341C73.2001 55.82 72.1649 56.5021 71.1156 57.0672C69.8889 57.7277 68.4818 58.1031 66.986 58.1031C65.4901 58.1031 64.0831 57.7277 62.8565 57.0672C61.8072 56.5021 60.7719 55.82 59.7307 55.1341ZM66.986 56.6137C70.885 56.6137 74.0457 53.4655 74.0457 49.582C74.0457 45.6985 70.885 42.5503 66.986 42.5503C63.0871 42.5503 59.9264 45.6985 59.9264 49.582C59.9264 53.4655 63.0871 56.6137 66.986 56.6137Z" fill="white"/>
</svg>
