<svg width="303" height="100" viewBox="0 0 303 100" fill="none" xmlns="http://www.w3.org/2000/svg">
<path d="M79.7582 30.1949L72.1225 34.6066L64.4845 30.1949L72.1225 25.7832L79.7582 30.1949Z" fill="white"/>
<path fill-rule="evenodd" clip-rule="evenodd" d="M72.121 41.9906L58.0869 33.8897L51.1592 37.8909V62.108L58.0869 66.1092L72.1199 58.0076L86.1529 66.1092L93.0806 62.108V37.8909L86.1529 33.8897L72.121 41.9906ZM72.1222 50.6256L86.1552 58.7317V41.2695L72.1222 49.3756L58.0892 41.2741V58.7271L72.1222 50.6256Z" fill="white"/>
<path d="M72.1225 74.2174L79.7582 69.8057L72.1225 65.394L64.4845 69.8057L72.1225 74.2174Z" fill="white"/>
<path d="M116.448 63.1495H122.891V52.7603L132.254 36.9838H125.089L119.672 46.8265L114.255 36.9838H107.085L116.448 52.7603V63.1495Z" fill="white"/>
<path d="M153.116 63.1495H133.675V59.0008L145.298 42.4702H134.392V36.9838H153.047V41.3402L141.631 57.6632H153.116V63.1495Z" fill="white"/>
<path d="M157.726 39.4214C157.726 40.3116 158.042 41.0265 158.671 41.5639C159.299 42.1012 160.069 42.371 160.984 42.371C161.9 42.371 162.67 42.1012 163.3 41.5639C163.929 41.0288 164.245 40.3116 164.245 39.4214C164.245 38.5313 163.929 37.8094 163.3 37.2629C162.67 36.714 161.9 36.4396 160.984 36.4396C160.069 36.4396 159.299 36.714 158.671 37.2629C158.042 37.8094 157.726 38.5313 157.726 39.4214Z" fill="white"/>
<path d="M158.102 63.1496H163.865V43.7063H158.102V63.1496Z" fill="white"/>
<path d="M185.658 63.1492H168.853V36.9858H174.992V57.6651H185.658V63.1492Z" fill="white"/>
<path fill-rule="evenodd" clip-rule="evenodd" d="M189.507 57.6975C189.507 59.5724 190.107 61.0184 191.309 62.0354V62.0377C192.508 63.057 194.014 63.5644 195.886 63.5644C197.759 63.5644 199.189 63.2208 200.173 62.5358C200.766 62.123 201.223 61.5396 201.543 60.7855V63.1516H207.306V53.9269C207.306 52.3726 207.263 51.1273 207.184 50.1887C207.103 49.2523 206.894 48.3483 206.552 47.4789C206.209 46.6118 205.66 45.8577 204.906 45.2166C204.149 44.5778 203.252 44.0981 202.212 43.7775C201.172 43.4593 200.056 43.2978 198.866 43.2978C197.494 43.2978 196.198 43.5446 194.975 44.0358C193.751 44.527 192.713 45.2857 191.853 46.3143C190.997 47.3428 190.453 48.6366 190.227 50.1887H195.953C196.092 49.3884 196.433 48.7588 196.979 48.3022C197.531 47.8479 198.149 47.6173 198.834 47.6173C199.703 47.6173 200.353 47.8456 200.789 48.3022C201.244 48.828 201.511 49.5821 201.576 50.5646L196.534 51.457C195.577 51.6415 194.724 51.8445 193.984 52.0751C193.239 52.3034 192.561 52.6101 191.94 52.9999C190.317 54.0745 189.507 55.6404 189.507 57.6975ZM201.2 57.287C200.928 57.9051 200.413 58.3824 199.659 58.7261H199.657C198.949 59.0466 198.227 59.2057 197.565 59.2057C196.903 59.2057 196.354 59.0628 195.919 58.7768C195.485 58.4931 195.268 58.0619 195.268 57.4923C195.268 57.0126 195.439 56.6021 195.78 56.2585C196.011 56.0302 196.301 55.848 196.657 55.7096C197.012 55.5735 197.51 55.4467 198.149 55.3314L201.682 54.6465C201.636 55.7903 201.474 56.6713 201.2 57.287Z" fill="white"/>
<path fill-rule="evenodd" clip-rule="evenodd" d="M219.882 63.0131C219.082 62.6487 218.374 61.9961 217.756 61.0575V63.1492H211.992V36.9858H217.756V45.7999C218.371 44.8613 219.082 44.211 219.882 43.8443C220.682 43.4776 221.63 43.2954 222.728 43.2954C224.374 43.2954 225.836 43.7244 227.116 44.5799C228.396 45.4378 229.395 46.637 230.117 48.1822C230.838 49.725 231.196 51.4685 231.196 53.4126C231.196 55.3566 230.838 57.1324 230.117 58.6775C229.395 60.2203 228.394 61.4219 227.116 62.2798C225.836 63.1376 224.374 63.5643 222.728 63.5643C221.63 63.5643 220.682 63.3798 219.882 63.0154V63.0131ZM224.201 57.2016C224.978 56.2284 225.368 54.9669 225.368 53.4126C225.368 51.8582 224.978 50.629 224.201 49.6581C223.424 48.6872 222.398 48.2029 221.116 48.2029C219.833 48.2029 218.807 48.6826 218.03 49.642C217.253 50.6013 216.865 51.8582 216.865 53.4126C216.865 54.9669 217.253 56.2584 218.03 57.2177C218.807 58.1794 219.838 58.6591 221.116 58.6591C222.393 58.6591 223.424 58.1748 224.201 57.2016Z" fill="white"/>
<path d="M235.607 60.5621C236.592 61.6253 237.773 62.3909 239.156 62.8591L239.154 62.8614C240.538 63.3295 241.972 63.5648 243.457 63.5648C245.148 63.5648 246.624 63.2973 247.881 62.7599C249.138 62.2226 250.104 61.4616 250.78 60.4791C251.453 59.4967 251.79 58.3644 251.79 57.0844C251.79 55.6892 251.418 54.5915 250.673 53.7912C249.933 52.991 249.048 52.4214 248.017 52.0778C246.986 51.7318 245.694 51.4251 244.14 51.1507C242.724 50.8993 241.691 50.641 241.038 50.3781C240.386 50.1175 240.06 49.6886 240.06 49.0936C240.06 48.66 240.275 48.3049 240.697 48.0305C241.119 47.7583 241.684 47.62 242.392 47.62C243.192 47.62 243.914 47.8252 244.553 48.2357C245.192 48.6462 245.637 49.2873 245.89 50.1567H251.342C250.98 47.982 250.002 46.2985 248.411 45.097C246.824 43.8955 244.83 43.2959 242.429 43.2959C240.185 43.2959 238.322 43.7825 236.836 44.7534C235.349 45.7266 234.609 47.2187 234.609 49.2297C234.609 50.6456 234.973 51.7664 235.704 52.5897C236.437 53.413 237.305 54.0011 238.312 54.3563C239.318 54.7114 240.584 55.0366 242.12 55.3341C243.515 55.6085 244.532 55.8829 245.171 56.1574C245.812 56.4295 246.133 56.8654 246.133 57.4604C246.133 57.9885 245.874 58.4082 245.362 58.7287C244.848 59.0493 244.189 59.2084 243.388 59.2084C242.5 59.2084 241.686 58.9732 240.955 58.505C240.224 58.0369 239.71 57.345 239.415 56.4295H233.822C234.03 58.1222 234.623 59.499 235.607 60.5621Z" fill="white"/>
</svg>
